<?xml version="1.0" encoding="us-ascii" standalone="no"?><svg xmlns="http://www.w3.org/2000/svg" xmlns:xlink="http://www.w3.org/1999/xlink" contentStyleType="text/css" height="671px" preserveAspectRatio="none" style="width:297px;height:671px;background:#FFFFFF;" version="1.1" viewBox="0 0 297 671" width="297px" zoomAndPan="magnify"><defs/><g><!--cluster nastran-parser--><g id="cluster_nastran-parser"><path d="M90.5,109 L195.5,109 A3.75,3.75 0 0 1 198,111.5 L205,132.6094 L217.5,132.6094 A2.5,2.5 0 0 1 220,135.1094 L220,561.5 A2.5,2.5 0 0 1 217.5,564 L90.5,564 A2.5,2.5 0 0 1 88,561.5 L88,111.5 A2.5,2.5 0 0 1 90.5,109 " fill="none" style="stroke:#000000;stroke-width:1.5;"/><line style="stroke:#000000;stroke-width:1.5;" x1="88" x2="205" y1="132.6094" y2="132.6094"/><text fill="#000000" font-family="sans-serif" font-size="14" font-weight="bold" lengthAdjust="spacing" textLength="104" x="92" y="125.5332">nastran-parser</text></g><!--entity INT--><g id="elem_INT"><rect fill="#F1F1F1" height="37.6094" rx="2.5" ry="2.5" style="stroke:#181818;stroke-width:0.5;" width="86" x="111" y="145"/><text fill="#000000" font-family="sans-serif" font-size="14" lengthAdjust="spacing" textLength="66" x="121" y="169.5332">Interpreter</text></g><!--entity ANL--><g id="elem_ANL"><rect fill="#F1F1F1" height="37.6094" rx="2.5" ry="2.5" style="stroke:#181818;stroke-width:0.5;" width="74" x="117" y="261"/><text fill="#000000" font-family="sans-serif" font-size="14" lengthAdjust="spacing" textLength="54" x="127" y="285.5332">Analyzer</text></g><!--entity RNB--><g id="elem_RNB"><rect fill="#EEEEEE" height="55.2188" rx="2.5" ry="2.5" style="stroke:#181818;stroke-width:0.5;stroke-dasharray:7.0,7.0;" width="99" x="104.5" y="377"/><text fill="#000000" font-family="sans-serif" font-size="14" font-style="italic" lengthAdjust="spacing" textLength="66" x="121" y="401.5332">&#171;optional&#187;</text><text fill="#000000" font-family="sans-serif" font-size="14" lengthAdjust="spacing" textLength="79" x="114.5" y="419.1426">Renumberer</text></g><!--entity EXP--><g id="elem_EXP"><rect fill="#F1F1F1" height="37.6094" rx="2.5" ry="2.5" style="stroke:#181818;stroke-width:0.5;" width="73" x="117.5" y="510"/><text fill="#000000" font-family="sans-serif" font-size="14" lengthAdjust="spacing" textLength="53" x="127.5" y="534.5332">Exporter</text></g><!--entity SRC--><g id="elem_SRC"><rect fill="#F1F1F1" height="37.6094" rx="2.5" ry="2.5" style="stroke:#181818;stroke-width:0.5;" width="134" x="7" y="7"/><text fill="#000000" font-family="sans-serif" font-size="14" lengthAdjust="spacing" textLength="114" x="17" y="31.5332">FileSystemSource</text></g><!--entity NET--><g id="elem_NET"><rect fill="#F1F1F1" height="37.6094" rx="2.5" ry="2.5" style="stroke:#181818;stroke-width:0.5;" width="115" x="176.5" y="7"/><text fill="#000000" font-family="sans-serif" font-size="14" lengthAdjust="spacing" textLength="95" x="186.5" y="31.5332">NetworkSource</text></g><!--entity FSINK--><g id="elem_FSINK"><rect fill="#F1F1F1" height="37.6094" rx="2.5" ry="2.5" style="stroke:#181818;stroke-width:0.5;" width="116" x="25" y="628"/><text fill="#000000" font-family="sans-serif" font-size="14" lengthAdjust="spacing" textLength="96" x="35" y="652.5332">FileSystemSink</text></g><!--entity NSINK--><g id="elem_NSINK"><rect fill="#F1F1F1" height="37.6094" rx="2.5" ry="2.5" style="stroke:#181818;stroke-width:0.5;" width="97" x="176.5" y="628"/><text fill="#000000" font-family="sans-serif" font-size="14" lengthAdjust="spacing" textLength="77" x="186.5" y="652.5332">NetworkSink</text></g><!--link SRC to INT--><g id="link_SRC_INT"><path d="M84.62,45.06 C99.92,71.07 124.9693,113.6376 140.2893,139.6976 " fill="none" id="SRC-to-INT" style="stroke:#181818;stroke-width:1.0;"/><polygon fill="#181818" points="143.33,144.87,142.2172,135.0842,140.7961,140.5596,135.3206,139.1385,143.33,144.87" style="stroke:#181818;stroke-width:1.0;"/><text fill="#000000" font-family="sans-serif" font-size="13" lengthAdjust="spacing" textLength="53" x="113" y="89.4951">text lines</text></g><!--link NET to INT--><g id="link_NET_INT"><path d="M223.38,45.06 C208.08,71.07 183.0307,113.6376 167.7107,139.6976 " fill="none" id="NET-to-INT" style="stroke:#181818;stroke-width:1.0;"/><polygon fill="#181818" points="164.67,144.87,172.6794,139.1385,167.2039,140.5596,165.7828,135.0842,164.67,144.87" style="stroke:#181818;stroke-width:1.0;"/><text fill="#000000" font-family="sans-serif" font-size="13" lengthAdjust="spacing" textLength="53" x="205" y="89.4951">text lines</text></g><!--link INT to ANL--><g id="link_INT_ANL"><path d="M154,183.06 C154,204.28 154,233.3 154,254.64 " fill="none" id="INT-to-ANL" style="stroke:#181818;stroke-width:1.0;"/><polygon fill="#181818" points="154,260.64,158,251.64,154,255.64,150,251.64,154,260.64" style="stroke:#181818;stroke-width:1.0;"/><text fill="#000000" font-family="sans-serif" font-size="13" lengthAdjust="spacing" textLength="27" x="155" y="227.4951">Card</text></g><!--link ANL to RNB--><g id="link_ANL_RNB"><path d="M154,299.08 C154,319.57 154,347.2 154,370.74 " fill="none" id="ANL-to-RNB" style="stroke:#181818;stroke-width:1.0;"/><polygon fill="#181818" points="154,376.74,158,367.74,154,371.74,150,367.74,154,376.74" style="stroke:#181818;stroke-width:1.0;"/><text fill="#000000" font-family="sans-serif" font-size="13" lengthAdjust="spacing" textLength="27" x="155" y="343.4951">Card</text></g><!--link RNB to EXP--><g id="link_RNB_EXP"><path d="M154,432.08 C154,455.58 154,483.24 154,503.8 " fill="none" id="RNB-to-EXP" style="stroke:#181818;stroke-width:1.0;"/><polygon fill="#181818" points="154,509.8,158,500.8,154,504.8,150,500.8,154,509.8" style="stroke:#181818;stroke-width:1.0;"/><text fill="#000000" font-family="sans-serif" font-size="13" lengthAdjust="spacing" textLength="27" x="155" y="476.4951">Card</text></g><!--link EXP to FSINK--><g id="link_EXP_FSINK"><path d="M142.91,548.12 C129.65,569.79 110.7121,600.7224 97.3821,622.5024 " fill="none" id="EXP-to-FSINK" style="stroke:#181818;stroke-width:1.0;"/><polygon fill="#181818" points="94.25,627.62,102.3599,622.0317,96.8601,623.3553,95.5364,617.8555,94.25,627.62" style="stroke:#181818;stroke-width:1.0;"/><text fill="#000000" font-family="sans-serif" font-size="13" lengthAdjust="spacing" textLength="53" x="124" y="594.4951">text lines</text></g><!--link EXP to NSINK--><g id="link_EXP_NSINK"><path d="M166.01,548.42 C172.08,557.82 179.52,569.47 186,580 C195.9,596.1 203.8014,609.4546 211.5614,622.7846 " fill="none" id="EXP-to-NSINK" style="stroke:#181818;stroke-width:1.0;"/><polygon fill="#181818" points="214.58,627.97,213.509,618.1796,212.0645,623.6489,206.5952,622.2044,214.58,627.97" style="stroke:#181818;stroke-width:1.0;"/><text fill="#000000" font-family="sans-serif" font-size="13" lengthAdjust="spacing" textLength="53" x="197" y="594.4951">text lines</text></g><!--SRC=[TO_1QeGm48RlUOfWpxv0MOHTSK5QGj4z5AI7L0ShnacOHBgszDsRw8hTRPk3CD__E_bY-mwD93dmMWz68w0htQI04zHEOgk0sTyL_icuFmTPzotf4PjKAqsxdJQkqoXLal2xR3vBJrC3DE-zwZJIla73lXYhZfs2Sh8EXbAFLCCBbvQNHSeg0UvTK_y3Y-p4cF5tonPuXD8waXXxHGiKNTIg71sG8V3V-QTSd9PWx- -UFYvqBnuNMW2EmojGu5UElbI8mrBApaRJkZ1xVherxx2VesEPYuVDVCLYnio_YiTn4epuFOySd1rN7OADc7_PVr508VB68KebDH4BGu3US8DX2D0BRZ0C0SvgjxlNKFmLVWC0]--></g></svg>